<svg t="1711373720121" class="icon" viewBox="0 0 1024 1024" version="1.1" xmlns="http://www.w3.org/2000/svg" p-id="4345" width="200" height="200"><path d="M506.264 647.423l400.267-400.268c13.008-13.007 13.008-34.098 0-47.104l-47.089-47.085c-13.007-13.007-34.11-13.007-47.116 0l-400.268 400.283 94.207 94.175z" fill="#272636" p-id="4346"></path><path d="M374.137 595.96c-25.486 25.475-48.554 89.861-23.066 115.346 25.486 25.472 89.875 2.423 115.328-23.066l23.097-23.078-92.29-92.264-23.068 23.063z" fill="#272636" p-id="4347"></path><path d="M875.567 828.897c0 34.777-29.939 66.129-66.155 65.995l-596.715 0.12c-37.134-0.12-65.875-28.62-65.874-66.115l-0.12-632.531c0.24-38.134 27.301-65.116 65.995-65.116l456.842-0.12v-39.796h-491.904c-38.806 0-70.271 31.465-70.271 70.271v702.724c0 38.806 31.465 70.255 70.271 70.255h667.585c38.806 0 70.271-31.449 70.271-70.255v-421.636l-40.044 0.079 0.119 386.124z" fill="#272636" p-id="4348"></path></svg>